#!OML:ASF I:\Actors\actors\Patient Classification 2\Patient 1\Session 1\actor1.ASF
:FULLY-SPECIFIED
:DEGREES
257
root -0.837501 18.3128 7.65744 -3.15628 5.62518 -6.12255
lowerback -1.777 2.19119 4.01915
upperback -7.82372 3.07596 0.433403
thorax -6.98647 1.29609 -1.91798
lowerneck -10.9737 -5.16629 -4.03385
upperneck 29.1473 -7.40085 2.9272
head 11.5638 -3.43877 0.793597
rclavicle 2.92213e-014 4.13472e-014
rhumerus -37.2275 10.8928 -95.6083
rradius 111.219
rwrist 25.9896
rhand 15.6218 -49.9422
rfingers 7.12502
rthumb 40.4367 -75.035
lclavicle 2.92213e-014 4.13472e-014
lhumerus -30.1953 -17.3651 101.506
lradius 118.365
lwrist -21.9587
lhand 43.1403 1.33634
lfingers 7.12502
lthumb 64.9416 8.61011
rfemur 19.3671 -6.38767 19.4465
rtibia -2.54444e-014
rfoot -18.9737 -9.01178
rtoes -18.8096
lfemur 0.269261 -9.1069 -8.23193
ltibia 29.4582
lfoot -26.248 6.72297
ltoes -58.9049
258
root -0.840463 18.3144 7.66327 -3.11143 5.37238 -6.19043
lowerback -1.7373 2.16971 4.08387
upperback -7.80464 3.04863 0.417724
thorax -6.98686 1.27772 -1.97054
lowerneck -11.0436 -5.59442 -4.20267
upperneck 29.1255 -7.94046 2.76238
head 11.5939 -3.72415 0.683626
rclavicle 2.82274e-014 1.43125e-014
rhumerus -37.2642 10.8163 -95.6296
rradius 111.23
rwrist 26.0669
rhand 15.6401 -49.8382
rfingers 7.12502
rthumb 40.4538 -74.9258
lclavicle 2.82274e-014 1.43125e-014
lhumerus -30.1728 -17.4019 101.518
lradius 118.3
lwrist -22.0006
lhand 43.187 1.26137
lfingers 7.12502
lthumb 64.9786 8.4739
rfemur 19.2953 -6.14498 19.5674
rtibia 0
rfoot -18.928 -9.04941
rtoes -18.8069
lfemur 0.282211 -9.06293 -8.17822
ltibia 29.5335
lfoot -26.3856 6.86145
ltoes -58.8511
259
root -0.84301 18.3165 7.66808 -3.04194 5.14818 -6.23226
lowerback -1.71917 2.14165 4.14492
upperback -7.78785 3.00973 0.372794
thorax -6.97667 1.25305 -2.05031
lowerneck -11.0745 -5.88035 -4.29745
upperneck 29.0299 -8.34459 2.79092
head 11.587 -3.91693 0.652549
rclavicle -2.98177e-015 -2.38542e-015
rhumerus -37.2617 10.7176 -95.6693
rradius 111.168
rwrist 26.1584
rhand 15.5337 -49.7298
rfingers 7.12502
rthumb 40.3538 -74.8481
lclavicle -2.98177e-015 -2.38542e-015
lhumerus -30.1601 -17.4317 101.461
lradius 118.299
lwrist -22.1043
lhand 43.3613 1.08915
lfingers 7.12502
lthumb 65.116 8.07165
rfemur 19.2093 -5.92828 19.6578
rtibia -1.59028e-014
rfoot -18.9549 -9.04599
rtoes -18.6136
lfemur 0.285182 -8.9971 -8.1397
ltibia 29.5643
lfoot -26.4865 6.97729
ltoes -58.8266
260
root -0.853579 18.3153 7.67403 -3.07641 4.86582 -6.48507
lowerback -1.49697 2.0988 4.27929
upperback -7.81702 2.97258 0.443844
thorax -7.13785 1.22391 -2.05955
lowerneck -11.0447 -6.02467 -4.39951
upperneck 28.9284 -8.57596 2.93499
head 11.5646 -4.01869 0.691177
rclavicle -5.46658e-014 -9.54166e-015
rhumerus -37.3312 10.6961 -95.6926
rradius 111.113
rwrist 26.1999
rhand 15.5019 -49.7037
rfingers 7.12502
rthumb 40.3239 -74.8312
lclavicle -5.46658e-014 -9.54166e-015
lhumerus -30.2966 -17.3929 101.455
lradius 118.377
lwrist -22.0677
lhand 43.3833 1.12447
lfingers 7.12502
lthumb 65.1334 8.07775
rfemur 19.2103 -5.67568 20.001
rtibia 5.08889e-014
rfoot -19.006 -9.02759
rtoes -18.5015
lfemur 0.454256 -8.87521 -7.83728
ltibia 29.4581
lfoot -26.5006 7.05009
ltoes -58.8464
261
root -0.87106 18.3175 7.68498 -3.01035 4.49715 -6.52293
lowerback -1.28451 2.07654 4.00984
upperback -7.93928 2.95614 0.539549
thorax -7.41057 1.22841 -1.82096
lowerneck -10.9931 -6.14743 -4.52161
upperneck 28.9365 -8.74682 2.97677
head 11.5741 -4.10673 0.703874
rclavicle -5.96354e-015 -1.19271e-014
rhumerus -37.5925 10.7259 -95.6993
rradius 111.148
rwrist 26.2497
rhand 15.7207 -49.8052
rfingers 7.12502
rthumb 40.5296 -74.8693
lclavicle -5.96354e-015 -1.19271e-014
lhumerus -30.533 -17.3611 101.539
lradius 118.478
lwrist -21.9419
lhand 43.1657 1.25389
lfingers 7.12502
lthumb 64.9617 8.49445
rfemur 19.1168 -5.32667 20.1485
rtibia -3.18055e-015
rfoot -19.0212 -9.00316
rtoes -18.2499
lfemur 0.590193 -8.76053 -7.76437
ltibia 29.2951
lfoot -26.4913 7.22722
ltoes -58.818
262
root -0.880883 18.3273 7.69517 -2.61204 4.13361 -5.87426
lowerback -1.75949 2.07522 3.16502
upperback -7.89674 2.89807 0.409811
thorax -7.11866 1.25634 -1.4639
lowerneck -11.0118 -6.24153 -4.59748
upperneck 28.7761 -8.8954 3.09191
head 11.5327 -4.17119 0.738
rclavicle 5.48646e-014 -8.74653e-015
rhumerus -37.4748 10.7682 -95.6964
rradius 111.109
rwrist 26.3238
rhand 15.8705 -50.0225
rfingers 7.12502
rthumb 40.6704 -75.0427
lclavicle 5.48646e-014 -8.74653e-015
lhumerus -30.323 -17.441 101.407
lradius 118.548
lwrist -21.943
lhand 43.1403 1.29995
lfingers 7.12502
lthumb 64.9416 8.57372
rfemur 18.7134 -4.92842 19.544
rtibia -6.67916e-014
rfoot -18.9869 -8.99493
rtoes -17.8559
lfemur 0.442115 -8.66433 -8.48141
ltibia 29.1072
lfoot -26.4835 7.56891
ltoes -58.7462
